<svg width="48" height="48" viewBox="0 0 48 48" fill="none" xmlns="http://www.w3.org/2000/svg">
<path d="M30.5791 3.22765C30.5818 3.75977 30.1556 4.19348 29.6272 4.19623C29.0989 4.19897 28.6683 3.76971 28.6655 3.2376C28.6632 2.70548 29.089 2.27177 29.6174 2.26903C30.1461 2.26628 30.5763 2.69554 30.5791 3.22765" fill="black"/>
<path d="M40.0807 8.80251C40.0834 9.33463 39.6572 9.76834 39.1288 9.77109C38.6005 9.77383 38.1699 9.34457 38.1671 8.81246C38.1644 8.28034 38.5906 7.84663 39.119 7.84389C39.6473 7.84114 40.0779 8.2704 40.0807 8.80251" fill="black"/>
<path d="M45.5411 18.4155C45.5438 18.9477 45.1176 19.3814 44.5893 19.3841C44.0609 19.3869 43.6303 18.9576 43.6276 18.4255C43.6252 17.8934 44.0511 17.4596 44.5794 17.4569C45.1081 17.4542 45.5384 17.8834 45.5411 18.4155" fill="black"/>
<path d="M45.4979 29.4905C45.5006 30.0226 45.0744 30.456 44.5461 30.4587C44.0177 30.4615 43.5871 30.0326 43.5844 29.5001C43.582 28.9683 44.0079 28.5346 44.5362 28.5315C45.0649 28.5288 45.4952 28.9581 45.4979 29.4905" fill="black"/>
<path d="M39.9626 39.0597C39.9653 39.5918 39.5391 40.0251 39.0107 40.0279C38.4824 40.031 38.0517 39.6017 38.049 39.0693C38.0463 38.5375 38.4725 38.1038 39.0009 38.101C39.5292 38.0983 39.9598 38.5272 39.9626 39.0597" fill="black"/>
<path d="M30.4181 44.5594C30.4208 45.0915 29.9946 45.5249 29.4662 45.5277C28.9379 45.5304 28.5073 45.1015 28.5045 44.569C28.5018 44.0373 28.928 43.6035 29.4564 43.6008C29.9844 43.5977 30.415 44.027 30.4181 44.5594" fill="black"/>
<path d="M19.4216 44.5159C19.4244 45.048 18.9981 45.4814 18.4698 45.4841C17.9415 45.4869 17.5108 45.0579 17.5081 44.5255C17.5054 43.9937 17.9316 43.56 18.4599 43.5573C18.9883 43.5542 19.4189 43.9834 19.4216 44.5159" fill="black"/>
<path d="M9.92035 38.9407C9.92307 39.4728 9.49686 39.9062 8.96852 39.9089C8.44018 39.912 8.00954 39.4827 8.00682 38.9503C8.00409 38.4185 8.43031 37.9848 8.95865 37.9821C9.48733 37.979 9.91763 38.4082 9.92035 38.9407" fill="black"/>
<path d="M4.4596 29.3277C4.46232 29.8601 4.03611 30.2935 3.50777 30.2962C2.97943 30.299 2.54879 29.8697 2.54606 29.3376C2.54334 28.8058 2.96955 28.3718 3.49789 28.369C4.02623 28.3663 4.45687 28.7955 4.4596 29.3277" fill="black"/>
<path d="M4.28971 18.2259C4.29244 18.7608 3.86418 19.1966 3.33312 19.1993C2.80206 19.2021 2.36937 18.7707 2.36665 18.2359C2.36393 17.701 2.79218 17.2653 3.32325 17.2625C3.85431 17.2598 4.28699 17.6911 4.28971 18.2259" fill="black"/>
<path d="M9.85227 8.60914C9.855 9.144 9.42674 9.57977 8.89568 9.58251C8.36462 9.58525 7.93193 9.15394 7.92955 8.61908C7.92649 8.08423 8.35508 7.64845 8.88581 7.64571C9.41687 7.64297 9.84955 8.07428 9.85227 8.60914" fill="black"/>
<path d="M21.6657 7.83051C21.6711 8.84297 20.8603 9.66754 19.8553 9.67302C18.85 9.67817 18.0313 8.86148 18.0262 7.84937C18.0208 6.83725 18.8313 6.01234 19.8366 6.0072C20.8415 6.00205 21.6606 6.81805 21.6657 7.83051" fill="black"/>
<path d="M30.1893 7.86617C30.1944 8.87829 29.3838 9.7032 28.3789 9.70834C27.3736 9.71383 26.5546 8.89714 26.5495 7.88503C26.5444 6.87291 27.3549 6.048 28.3598 6.04286C29.3651 6.03771 30.1842 6.85371 30.1893 7.86617" fill="black"/>
<path d="M37.5476 12.1855C37.5527 13.1979 36.7421 14.0225 35.7372 14.028C34.7319 14.0331 33.9128 13.2168 33.9077 12.2043C33.9026 11.1922 34.7132 10.3673 35.7181 10.3622C36.7234 10.357 37.5425 11.1734 37.5476 12.1855" fill="black"/>
<path d="M19.583 3.18411C19.5857 3.71623 19.1595 4.14994 18.6311 4.15268C18.1028 4.15543 17.6722 3.72617 17.6694 3.19406C17.6667 2.66194 18.0929 2.22823 18.6213 2.22548C19.15 2.22274 19.5803 2.652 19.583 3.18411" fill="black"/>
<path d="M41.7767 19.6341C41.7818 20.6465 40.9712 21.4711 39.9663 21.4766C38.961 21.4817 38.1423 20.665 38.1372 19.6529C38.1318 18.6408 38.9423 17.8159 39.9476 17.8107C40.9525 17.8056 41.7716 18.6219 41.7767 19.6341" fill="black"/>
<path d="M41.7457 28.2185C41.7508 29.2306 40.9403 30.0555 39.9353 30.0607C38.9301 30.0662 38.111 29.2498 38.1059 28.2374C38.1008 27.2253 38.9113 26.4003 39.9163 26.3952C40.9215 26.3897 41.7406 27.2064 41.7457 28.2185" fill="black"/>
<path d="M37.4512 35.6359C37.4564 36.648 36.6458 37.4729 35.6405 37.478C34.6356 37.4835 33.8165 36.6672 33.8114 35.6547C33.8063 34.6426 34.6169 33.8177 35.6218 33.8126C36.6271 33.8071 37.4458 34.6238 37.4512 35.6359" fill="black"/>
<path d="M30.0531 39.8973C30.0582 40.9097 29.2477 41.7343 28.2427 41.7398C27.2375 41.7449 26.4184 40.9286 26.4133 39.9161C26.4082 38.904 27.2187 38.0791 28.2237 38.0739C29.229 38.0688 30.048 38.8851 30.0531 39.8973" fill="black"/>
<path d="M21.5248 39.8671C21.5299 40.8792 20.7193 41.7041 19.7144 41.7093C18.7091 41.7147 17.89 40.8984 17.8849 39.8859C17.8798 38.8738 18.6904 38.0489 19.6953 38.0438C20.7006 38.0386 21.5197 38.855 21.5248 39.8671" fill="black"/>
<path d="M14.1566 35.5426C14.1617 36.5547 13.3512 37.3793 12.3462 37.3848C11.3409 37.3899 10.5219 36.5736 10.5168 35.5615C10.5117 34.549 11.3222 33.7241 12.3272 33.719C13.3321 33.7138 14.1512 34.5302 14.1566 35.5426" fill="black"/>
<path d="M9.94622 28.0971C9.95132 29.1093 9.14077 29.9342 8.13584 29.9393C7.13056 29.9448 6.31184 29.1281 6.30673 28.116C6.30128 27.1039 7.11184 26.2786 8.11711 26.2738C9.12205 26.2683 9.94111 27.085 9.94622 28.0971" fill="black"/>
<path d="M9.79541 19.4904C9.80051 20.5077 8.98588 21.3367 7.97583 21.3418C6.96579 21.347 6.14298 20.5265 6.13754 19.5093C6.13243 18.492 6.94707 17.663 7.95711 17.6578C8.96715 17.6527 9.78996 18.4731 9.79541 19.4904" fill="black"/>
<path d="M14.1055 12.0459C14.1106 13.0632 13.2963 13.8922 12.286 13.8974C11.2759 13.9029 10.4531 13.0821 10.4477 12.0651C10.4425 11.0475 11.2572 10.2189 12.2672 10.2137C13.2773 10.2082 14.1004 11.0287 14.1055 12.0459" fill="black"/>
<path d="M28.3949 14.7799C28.4007 15.8904 27.5115 16.7952 26.4089 16.801C25.3062 16.8069 24.4079 15.911 24.4021 14.8008C24.3963 13.6899 25.2855 12.7851 26.3881 12.7797C27.4907 12.7738 28.3891 13.6694 28.3949 14.7799" fill="black"/>
<path d="M35.0567 21.4419C35.0625 22.5525 34.1729 23.4573 33.0706 23.4631C31.968 23.4689 31.0693 22.573 31.0638 21.4629C31.0581 20.352 31.9472 19.4472 33.0499 19.4417C34.1525 19.4359 35.0509 20.3314 35.0567 21.4419" fill="black"/>
<path d="M32.6043 30.6319C32.61 31.7424 31.7205 32.6472 30.6179 32.653C29.5152 32.6585 28.6169 31.763 28.6114 30.6528C28.6056 29.5419 29.4948 28.6375 30.5975 28.6313C31.7001 28.6255 32.5985 29.5214 32.6043 30.6319" fill="black"/>
<path d="M17.0199 26.2433C17.0257 27.3535 16.1365 28.2586 15.0339 28.2645C13.9312 28.2699 13.0329 27.3744 13.0271 26.2639C13.0213 25.1534 13.9105 24.2486 15.0131 24.2427C16.1157 24.2369 17.0141 25.1328 17.0199 26.2433" fill="black"/>
<path d="M19.3335 17.1723C19.3392 18.2883 18.4456 19.1976 17.3375 19.2034C16.2291 19.2089 15.3263 18.3089 15.3205 17.1933C15.3151 16.0773 16.2087 15.1677 17.3168 15.1622C18.4249 15.1563 19.3277 16.0563 19.3335 17.1723" fill="black"/>
<path d="M23.4955 32.9174C23.5013 34.0279 22.6121 34.9327 21.5095 34.9385C20.4068 34.944 19.5084 34.0488 19.5027 32.9383C19.4969 31.8274 20.3861 30.923 21.4887 30.9171C22.5913 30.911 23.4897 31.8069 23.4955 32.9174" fill="black"/>
<path d="M25.6283 1.54594C25.6327 2.37874 24.9654 3.0576 24.1386 3.06171C23.3117 3.06617 22.6376 2.39451 22.6335 1.56137C22.6291 0.728568 23.2963 0.0500539 24.1232 0.0455968C24.9501 0.0414825 25.6238 0.71314 25.6283 1.54594" fill="black"/>
<path d="M36.6989 4.58056C36.703 5.41336 36.0361 6.09222 35.2092 6.09634C34.3823 6.10079 33.7083 5.42879 33.7042 4.59599C33.6998 3.76319 34.3667 3.08434 35.1939 3.08022C36.0208 3.07577 36.6945 3.74776 36.6989 4.58056" fill="black"/>
<path d="M44.7796 12.7834C44.7837 13.6162 44.1168 14.2951 43.2899 14.2992C42.463 14.3037 41.789 13.632 41.7849 12.7989C41.7804 11.9661 42.4473 11.2875 43.2746 11.2831C44.1015 11.279 44.7752 11.9506 44.7796 12.7834" fill="black"/>
<path d="M47.7055 23.9564C47.7096 24.7896 47.0427 25.4681 46.2158 25.4722C45.3889 25.4767 44.7149 24.805 44.7108 23.9719C44.7064 23.1391 45.3733 22.4606 46.2005 22.4565C47.0274 22.452 47.7011 23.1237 47.7055 23.9564" fill="black"/>
<path d="M44.6924 35.1065C44.6969 35.9393 44.03 36.6178 43.2031 36.6223C42.3758 36.6267 41.7021 35.9551 41.6977 35.1219C41.6936 34.2888 42.3605 33.6106 43.1874 33.6062C44.0143 33.6017 44.6883 34.2734 44.6924 35.1065" fill="black"/>
<path d="M36.5478 43.2449C36.5522 44.0781 35.8849 44.7566 35.0581 44.7607C34.2312 44.7651 33.5571 44.0935 33.553 43.2603C33.5486 42.4275 34.2155 41.749 35.0427 41.7446C35.8696 41.7401 36.5433 42.4121 36.5478 43.2449" fill="black"/>
<path d="M25.454 46.1918C25.4581 47.0249 24.7912 47.7034 23.9643 47.7079C23.1374 47.712 22.4633 47.0403 22.4593 46.2075C22.4548 45.3744 23.1217 44.6959 23.949 44.6914C24.7758 44.6873 25.4495 45.359 25.454 46.1918" fill="black"/>
<path d="M14.3833 43.1571C14.3878 43.9903 13.7205 44.6685 12.8936 44.6729C12.0667 44.6774 11.3927 44.0057 11.3886 43.1726C11.3842 42.3398 12.0511 41.6613 12.8783 41.6568C13.7052 41.6523 14.3789 42.3243 14.3833 43.1571" fill="black"/>
<path d="M6.3023 34.9543C6.30673 35.7871 5.63949 36.4656 4.8126 36.4701C3.98571 36.4745 3.312 35.8029 3.30758 34.9697C3.30315 34.1369 3.97039 33.4584 4.79728 33.4539C5.62417 33.4495 6.29822 34.1211 6.3023 34.9543" fill="black"/>
<path d="M3.15745 23.7813C3.16188 24.6182 2.49158 25.3001 1.6606 25.3046C0.829625 25.309 0.152178 24.6339 0.148093 23.7967C0.143668 22.9598 0.813966 22.2778 1.64494 22.2737C2.47626 22.2693 3.15337 22.9443 3.15745 23.7813" fill="black"/>
<path d="M6.18553 12.5767C6.18995 13.4136 5.51966 14.0955 4.68868 14.1C3.8577 14.1041 3.18025 13.429 3.17617 12.5921C3.17174 11.7552 3.84204 11.0733 4.67302 11.0688C5.50434 11.0647 6.18144 11.7398 6.18553 12.5767" fill="black"/>
<path d="M14.3704 4.39782C14.3745 5.23474 13.7042 5.91668 12.8735 5.92114C12.0422 5.9256 11.3651 5.25017 11.361 4.41325C11.3566 3.57634 12.0269 2.8944 12.8579 2.89028C13.6888 2.88582 14.366 3.56091 14.3704 4.39782" fill="black"/>
<path d="M26.8259 23.8889C26.8194 25.501 25.5166 26.8032 23.9159 26.7967C22.3152 26.7905 21.0223 25.4781 21.0288 23.8659C21.0349 22.2535 22.3377 20.9517 23.9387 20.9578C25.5394 20.9643 26.8323 22.2765 26.8259 23.8889" fill="black"/>
<path d="M26.3316 33.0597L28.1889 40.1523Z" fill="black"/>
<path d="M26.3316 33.0597L28.5049 40.0683L27.873 40.2363L26.3316 33.0597Z" fill="black"/>
<path d="M29.9306 29.9715L35.904 36.0353Z" fill="black"/>
<path d="M29.9306 29.9715L36.1362 35.8035L35.6722 36.2667L29.9306 29.9715Z" fill="black"/>
<path d="M32.2917 26.1699L39.8785 28.2494Z" fill="black"/>
<path d="M32.2917 26.1699L39.9643 27.9322L39.7927 28.5669L32.2917 26.1699Z" fill="black"/>
<path d="M32.1787 21.6854L39.9629 19.6176Z" fill="black"/>
<path d="M32.1787 21.6854L39.8795 19.2998L40.0463 19.9358L32.1787 21.6854Z" fill="black"/>
<path d="M30.5556 17.2533L35.7079 12.1046Z" fill="black"/>
<path d="M30.5556 17.2533L35.4778 11.8711L35.9384 12.3381L30.5556 17.2533Z" fill="black"/>
<path d="M26.0463 16.0347L28.3197 7.62137Z" fill="black"/>
<path d="M26.0463 16.0347L28.0044 7.53497L28.6349 7.70811L26.0463 16.0347Z" fill="black"/>
<path d="M21.8298 15.8698L19.6633 7.59599Z" fill="black"/>
<path d="M21.8298 15.8698L19.3474 7.67999L19.9792 7.51234L21.8298 15.8698Z" fill="black"/>
<path d="M18.1927 18.0566L12.0034 11.7737Z" fill="black"/>
<path d="M18.1927 18.0566L11.7712 12.0055L12.2352 11.5419L18.1927 18.0566Z" fill="black"/>
<path d="M15.6923 21.6199L7.45328 19.3615Z" fill="black"/>
<path d="M15.6923 21.6199L7.36749 19.679L7.53907 19.044L15.6923 21.6199Z" fill="black"/>
<path d="M15.3644 26.1514L7.51932 28.2353Z" fill="black"/>
<path d="M15.3644 26.1514L7.60272 28.5535L7.43591 27.9171L15.3644 26.1514Z" fill="black"/>
<path d="M17.2324 30.5664L12.0096 35.7857Z" fill="black"/>
<path d="M17.2327 30.5664L12.2397 36.0192L11.7794 35.5519L17.2327 30.5664Z" fill="black"/>
<path d="M21.7675 31.9197L19.4162 40.5696Z" fill="black"/>
<path d="M21.7672 31.9197L19.7311 40.6563L19.1006 40.4829L21.7672 31.9197Z" fill="black"/>
<path d="M23.9115 27.8373L23.8393 46.31Z" fill="black"/>
<path d="M23.9115 27.8373L24.1661 46.3114L23.5128 46.3087L23.9115 27.8373Z" fill="black"/>
<path d="M26.3799 28.1955L34.9879 43.3488Z" fill="black"/>
<path d="M26.3799 28.1955L35.2715 43.1856L34.7043 43.5123L26.3799 28.1955Z" fill="black"/>
<path d="M28.1076 26.3304L43.1728 35.1699Z" fill="black"/>
<path d="M28.1076 26.3304L43.3375 34.8857L43.0083 35.4542L28.1076 26.3304Z" fill="black"/>
<path d="M28.6601 23.8958L46.2009 23.9654Z" fill="black"/>
<path d="M28.6601 23.8958L46.2022 23.6362L46.1995 24.2942L28.6601 23.8958Z" fill="black"/>
<path d="M27.3174 21.9233L43.2606 12.7368Z" fill="black"/>
<path d="M27.3174 21.9233L43.0982 12.4512L43.4226 13.0224L27.3174 21.9233Z" fill="black"/>
<path d="M26.0296 20.2419L35.1394 4.49348Z" fill="black"/>
<path d="M26.0296 20.2419L34.8572 4.32788L35.4219 4.65908L26.0296 20.2419Z" fill="black"/>
<path d="M23.9421 19.9629L24.0143 1.44411Z" fill="black"/>
<path d="M23.9421 19.9629L23.6875 1.44274L24.3411 1.44548L23.9421 19.9629Z" fill="black"/>
<path d="M21.8135 20.1566L12.8657 4.40571Z" fill="black"/>
<path d="M21.8135 20.1566L12.5822 4.56891L13.1493 4.24216L21.8135 20.1566Z" fill="black"/>
<path d="M20.11 21.6374L4.68085 12.5842Z" fill="black"/>
<path d="M20.11 21.6374L4.51645 12.8685L4.8453 12.3L20.11 21.6374Z" fill="black"/>
<path d="M19.1748 23.8584L1.65277 23.7891Z" fill="black"/>
<path d="M19.1748 23.8584L1.65143 24.1179L1.65415 23.46L19.1748 23.8584Z" fill="black"/>
<path d="M19.9483 26.1696L4.59338 35.0174Z" fill="black"/>
<path d="M19.9483 26.1696L4.75543 35.303L4.431 34.7318L19.9483 26.1696Z" fill="black"/>
<path d="M21.5367 28.009L12.7142 43.2603Z" fill="black"/>
<path d="M21.5367 28.009L12.9964 43.4263L12.4317 43.0951L21.5367 28.009Z" fill="black"/>
<path d="M30.5791 3.22765C30.5818 3.75977 30.1556 4.19348 29.6272 4.19623C29.0989 4.19897 28.6683 3.76971 28.6655 3.2376C28.6632 2.70548 29.089 2.27177 29.6174 2.26903C30.1461 2.26628 30.5763 2.69554 30.5791 3.22765" fill="black"/>
<path d="M40.0807 8.80251C40.0834 9.33463 39.6572 9.76834 39.1288 9.77109C38.6005 9.77383 38.1699 9.34457 38.1671 8.81246C38.1644 8.28034 38.5906 7.84663 39.119 7.84389C39.6473 7.84114 40.0779 8.2704 40.0807 8.80251" fill="black"/>
<path d="M45.5411 18.4155C45.5438 18.9477 45.1176 19.3814 44.5893 19.3841C44.0609 19.3869 43.6303 18.9576 43.6276 18.4255C43.6252 17.8934 44.0511 17.4596 44.5794 17.4569C45.1081 17.4542 45.5384 17.8834 45.5411 18.4155" fill="black"/>
<path d="M45.4979 29.4905C45.5006 30.0226 45.0744 30.456 44.5461 30.4587C44.0177 30.4615 43.5871 30.0326 43.5844 29.5001C43.582 28.9683 44.0079 28.5346 44.5362 28.5315C45.0649 28.5288 45.4952 28.9581 45.4979 29.4905" fill="black"/>
<path d="M39.9626 39.0597C39.9653 39.5918 39.5391 40.0251 39.0107 40.0279C38.4824 40.031 38.0517 39.6017 38.049 39.0693C38.0463 38.5375 38.4725 38.1038 39.0009 38.101C39.5292 38.0983 39.9598 38.5272 39.9626 39.0597" fill="black"/>
<path d="M30.4181 44.5594C30.4208 45.0915 29.9946 45.5249 29.4662 45.5277C28.9379 45.5304 28.5073 45.1015 28.5045 44.569C28.5018 44.0373 28.928 43.6035 29.4564 43.6008C29.9844 43.5977 30.415 44.027 30.4181 44.5594" fill="black"/>
<path d="M19.4216 44.5159C19.4244 45.048 18.9981 45.4814 18.4698 45.4841C17.9415 45.4869 17.5108 45.0579 17.5081 44.5255C17.5054 43.9937 17.9316 43.56 18.4599 43.5573C18.9883 43.5542 19.4189 43.9834 19.4216 44.5159" fill="black"/>
<path d="M9.92035 38.9407C9.92307 39.4728 9.49686 39.9062 8.96852 39.9089C8.44018 39.912 8.00954 39.4827 8.00682 38.9503C8.00409 38.4185 8.43031 37.9848 8.95865 37.9821C9.48733 37.979 9.91763 38.4082 9.92035 38.9407" fill="black"/>
<path d="M4.4596 29.3277C4.46232 29.8601 4.03611 30.2935 3.50777 30.2962C2.97943 30.299 2.54879 29.8697 2.54606 29.3376C2.54334 28.8058 2.96955 28.3718 3.49789 28.369C4.02623 28.3663 4.45687 28.7955 4.4596 29.3277" fill="black"/>
<path d="M4.28971 18.2259C4.29244 18.7608 3.86418 19.1966 3.33312 19.1993C2.80206 19.2021 2.36937 18.7707 2.36665 18.2359C2.36393 17.701 2.79218 17.2653 3.32325 17.2625C3.85431 17.2598 4.28699 17.6911 4.28971 18.2259" fill="black"/>
<path d="M9.85227 8.60914C9.855 9.144 9.42674 9.57977 8.89568 9.58251C8.36462 9.58525 7.93193 9.15394 7.92955 8.61908C7.92649 8.08423 8.35508 7.64845 8.88581 7.64571C9.41687 7.64297 9.84955 8.07428 9.85227 8.60914" fill="black"/>
<path d="M21.6657 7.83051C21.6711 8.84297 20.8603 9.66754 19.8553 9.67302C18.85 9.67817 18.0313 8.86148 18.0262 7.84937C18.0208 6.83725 18.8313 6.01234 19.8366 6.0072C20.8415 6.00205 21.6606 6.81805 21.6657 7.83051" fill="black"/>
<path d="M30.1893 7.86617C30.1944 8.87829 29.3838 9.7032 28.3789 9.70834C27.3736 9.71383 26.5546 8.89714 26.5495 7.88503C26.5444 6.87291 27.3549 6.048 28.3598 6.04286C29.3651 6.03771 30.1842 6.85371 30.1893 7.86617" fill="black"/>
<path d="M37.5476 12.1855C37.5527 13.1979 36.7421 14.0225 35.7372 14.028C34.7319 14.0331 33.9128 13.2168 33.9077 12.2043C33.9026 11.1922 34.7132 10.3673 35.7181 10.3622C36.7234 10.357 37.5425 11.1734 37.5476 12.1855" fill="black"/>
<path d="M19.583 3.18411C19.5857 3.71623 19.1595 4.14994 18.6311 4.15268C18.1028 4.15543 17.6722 3.72617 17.6694 3.19406C17.6667 2.66194 18.0929 2.22823 18.6213 2.22548C19.15 2.22274 19.5803 2.652 19.583 3.18411" fill="black"/>
<path d="M41.7767 19.6341C41.7818 20.6465 40.9712 21.4711 39.9663 21.4766C38.961 21.4817 38.1423 20.665 38.1372 19.6529C38.1318 18.6408 38.9423 17.8159 39.9476 17.8107C40.9525 17.8056 41.7716 18.6219 41.7767 19.6341" fill="black"/>
<path d="M41.7457 28.2185C41.7508 29.2306 40.9403 30.0555 39.9353 30.0607C38.9301 30.0662 38.111 29.2498 38.1059 28.2374C38.1008 27.2253 38.9113 26.4003 39.9163 26.3952C40.9215 26.3897 41.7406 27.2064 41.7457 28.2185" fill="black"/>
<path d="M37.4512 35.6359C37.4564 36.648 36.6458 37.4729 35.6405 37.478C34.6356 37.4835 33.8165 36.6672 33.8114 35.6547C33.8063 34.6426 34.6169 33.8177 35.6218 33.8126C36.6271 33.8071 37.4458 34.6238 37.4512 35.6359" fill="black"/>
<path d="M30.0531 39.8973C30.0582 40.9097 29.2477 41.7343 28.2427 41.7398C27.2375 41.7449 26.4184 40.9286 26.4133 39.9161C26.4082 38.904 27.2187 38.0791 28.2237 38.0739C29.229 38.0688 30.048 38.8851 30.0531 39.8973" fill="black"/>
<path d="M21.5248 39.8671C21.5299 40.8792 20.7193 41.7041 19.7144 41.7093C18.7091 41.7147 17.89 40.8984 17.8849 39.8859C17.8798 38.8738 18.6904 38.0489 19.6953 38.0438C20.7006 38.0386 21.5197 38.855 21.5248 39.8671" fill="black"/>
<path d="M14.1566 35.5426C14.1617 36.5547 13.3512 37.3793 12.3462 37.3848C11.3409 37.3899 10.5219 36.5736 10.5168 35.5615C10.5117 34.549 11.3222 33.7241 12.3272 33.719C13.3321 33.7138 14.1512 34.5302 14.1566 35.5426" fill="black"/>
<path d="M9.94622 28.0971C9.95132 29.1093 9.14077 29.9342 8.13584 29.9393C7.13056 29.9448 6.31184 29.1281 6.30673 28.116C6.30128 27.1039 7.11184 26.2786 8.11711 26.2738C9.12205 26.2683 9.94111 27.085 9.94622 28.0971" fill="black"/>
<path d="M9.79541 19.4904C9.80051 20.5077 8.98588 21.3367 7.97583 21.3418C6.96579 21.347 6.14298 20.5265 6.13754 19.5093C6.13243 18.492 6.94707 17.663 7.95711 17.6578C8.96715 17.6527 9.78996 18.4731 9.79541 19.4904" fill="black"/>
<path d="M14.1055 12.0459C14.1106 13.0632 13.2963 13.8922 12.286 13.8974C11.2759 13.9029 10.4531 13.0821 10.4477 12.0651C10.4425 11.0475 11.2572 10.2189 12.2672 10.2137C13.2773 10.2082 14.1004 11.0287 14.1055 12.0459" fill="black"/>
<path d="M28.3949 14.7799C28.4007 15.8904 27.5115 16.7952 26.4089 16.801C25.3062 16.8069 24.4079 15.911 24.4021 14.8008C24.3963 13.6899 25.2855 12.7851 26.3881 12.7797C27.4907 12.7738 28.3891 13.6694 28.3949 14.7799" fill="black"/>
<path d="M35.0567 21.4419C35.0625 22.5525 34.1729 23.4573 33.0706 23.4631C31.968 23.4689 31.0693 22.573 31.0638 21.4629C31.0581 20.352 31.9472 19.4472 33.0499 19.4417C34.1525 19.4359 35.0509 20.3314 35.0567 21.4419" fill="black"/>
<path d="M32.6043 30.6319C32.61 31.7424 31.7205 32.6472 30.6179 32.653C29.5152 32.6585 28.6169 31.763 28.6114 30.6528C28.6056 29.5419 29.4948 28.6375 30.5975 28.6313C31.7001 28.6255 32.5985 29.5214 32.6043 30.6319" fill="black"/>
<path d="M17.0199 26.2433C17.0257 27.3535 16.1365 28.2586 15.0339 28.2645C13.9312 28.2699 13.0329 27.3744 13.0271 26.2639C13.0213 25.1534 13.9105 24.2486 15.0131 24.2427C16.1157 24.2369 17.0141 25.1328 17.0199 26.2433" fill="black"/>
<path d="M19.3335 17.1723C19.3392 18.2883 18.4456 19.1976 17.3375 19.2034C16.2291 19.2089 15.3263 18.3089 15.3205 17.1933C15.3151 16.0773 16.2087 15.1677 17.3168 15.1622C18.4249 15.1563 19.3277 16.0563 19.3335 17.1723" fill="black"/>
<path d="M23.4955 32.9174C23.5013 34.0279 22.6121 34.9327 21.5095 34.9385C20.4068 34.944 19.5084 34.0488 19.5027 32.9383C19.4969 31.8274 20.3861 30.923 21.4887 30.9171C22.5913 30.911 23.4897 31.8069 23.4955 32.9174" fill="black"/>
<path d="M25.6283 1.54594C25.6327 2.37874 24.9654 3.0576 24.1386 3.06171C23.3117 3.06617 22.6376 2.39451 22.6335 1.56137C22.6291 0.728568 23.2963 0.0500539 24.1232 0.0455968C24.9501 0.0414825 25.6238 0.71314 25.6283 1.54594" fill="black"/>
<path d="M36.6989 4.58056C36.703 5.41336 36.0361 6.09222 35.2092 6.09634C34.3823 6.10079 33.7083 5.42879 33.7042 4.59599C33.6998 3.76319 34.3667 3.08434 35.1939 3.08022C36.0208 3.07577 36.6945 3.74776 36.6989 4.58056" fill="black"/>
<path d="M44.7796 12.7834C44.7837 13.6162 44.1168 14.2951 43.2899 14.2992C42.463 14.3037 41.789 13.632 41.7849 12.7989C41.7804 11.9661 42.4473 11.2875 43.2746 11.2831C44.1015 11.279 44.7752 11.9506 44.7796 12.7834" fill="black"/>
<path d="M47.7055 23.9564C47.7096 24.7896 47.0427 25.4681 46.2158 25.4722C45.3889 25.4767 44.7149 24.805 44.7108 23.9719C44.7064 23.1391 45.3733 22.4606 46.2005 22.4565C47.0274 22.452 47.7011 23.1237 47.7055 23.9564" fill="black"/>
<path d="M44.6924 35.1065C44.6969 35.9393 44.03 36.6178 43.2031 36.6223C42.3758 36.6267 41.7021 35.9551 41.6977 35.1219C41.6936 34.2888 42.3605 33.6106 43.1874 33.6062C44.0143 33.6017 44.6883 34.2734 44.6924 35.1065" fill="black"/>
<path d="M36.5478 43.2449C36.5522 44.0781 35.8849 44.7566 35.0581 44.7607C34.2312 44.7651 33.5571 44.0935 33.553 43.2603C33.5486 42.4275 34.2155 41.749 35.0427 41.7446C35.8696 41.7401 36.5433 42.4121 36.5478 43.2449" fill="black"/>
<path d="M25.454 46.1918C25.4581 47.0249 24.7912 47.7034 23.9643 47.7079C23.1374 47.712 22.4633 47.0403 22.4593 46.2075C22.4548 45.3744 23.1217 44.6959 23.949 44.6914C24.7758 44.6873 25.4495 45.359 25.454 46.1918" fill="black"/>
<path d="M14.3833 43.1571C14.3878 43.9903 13.7205 44.6685 12.8936 44.6729C12.0667 44.6774 11.3927 44.0057 11.3886 43.1726C11.3842 42.3398 12.0511 41.6613 12.8783 41.6568C13.7052 41.6523 14.3789 42.3243 14.3833 43.1571" fill="black"/>
<path d="M6.3023 34.9543C6.30673 35.7871 5.63949 36.4656 4.8126 36.4701C3.98571 36.4745 3.312 35.8029 3.30758 34.9697C3.30315 34.1369 3.97039 33.4584 4.79728 33.4539C5.62417 33.4495 6.29822 34.1211 6.3023 34.9543" fill="black"/>
<path d="M3.15745 23.7813C3.16188 24.6182 2.49158 25.3001 1.6606 25.3046C0.829625 25.309 0.152178 24.6339 0.148093 23.7967C0.143668 22.9598 0.813966 22.2778 1.64494 22.2737C2.47626 22.2693 3.15337 22.9443 3.15745 23.7813" fill="black"/>
<path d="M6.18553 12.5767C6.18995 13.4136 5.51966 14.0955 4.68868 14.1C3.8577 14.1041 3.18025 13.429 3.17617 12.5921C3.17174 11.7552 3.84204 11.0733 4.67302 11.0688C5.50434 11.0647 6.18144 11.7398 6.18553 12.5767" fill="black"/>
<path d="M14.3704 4.39782C14.3745 5.23474 13.7042 5.91668 12.8735 5.92114C12.0422 5.9256 11.3651 5.25017 11.361 4.41325C11.3566 3.57634 12.0269 2.8944 12.8579 2.89028C13.6888 2.88582 14.366 3.56091 14.3704 4.39782" fill="black"/>
<path d="M26.8259 23.8889C26.8194 25.501 25.5166 26.8032 23.9159 26.7967C22.3152 26.7905 21.0223 25.4781 21.0288 23.8659C21.0349 22.2535 22.3377 20.9517 23.9387 20.9578C25.5394 20.9643 26.8323 22.2765 26.8259 23.8889" fill="black"/>
<path d="M15.3644 26.1514L7.60272 28.5535L7.43591 27.9171L15.3644 26.1514Z" fill="black"/>
<path d="M17.2324 30.5664L12.0096 35.7857Z" fill="black"/>
<path d="M17.2327 30.5664L12.2397 36.0192L11.7794 35.5519L17.2327 30.5664Z" fill="black"/>
<path d="M21.7675 31.9197L19.4162 40.5696Z" fill="black"/>
<path d="M21.7672 31.9197L19.7311 40.6563L19.1006 40.4829L21.7672 31.9197Z" fill="black"/>
<path d="M23.8393 46.3101L23.9112 27.8376L23.8393 46.3101Z" fill="black"/>
<path d="M23.9115 27.8373L24.1661 46.3114L23.5128 46.3087L23.9115 27.8373Z" fill="black"/>
<path d="M26.3799 28.1955L34.9879 43.3488Z" fill="black"/>
<path d="M26.3799 28.1955L35.2715 43.1856L34.7043 43.5123L26.3799 28.1955Z" fill="black"/>
<path d="M28.1076 26.3304L43.1728 35.1699Z" fill="black"/>
<path d="M28.1076 26.3304L43.3375 34.8857L43.0083 35.4542L28.1076 26.3304Z" fill="black"/>
<path d="M46.2009 23.9654L28.6601 23.8958L46.2009 23.9654Z" fill="black"/>
<path d="M28.6601 23.8958L46.2022 23.6362L46.1995 24.2942L28.6601 23.8958Z" fill="black"/>
<path d="M27.3174 21.9233L43.2606 12.7368Z" fill="black"/>
<path d="M27.3174 21.9233L43.0982 12.4512L43.4226 13.0224L27.3174 21.9233Z" fill="black"/>
<path d="M26.0296 20.2419L35.1394 4.49348Z" fill="black"/>
<path d="M26.0296 20.2419L34.8572 4.32788L35.4219 4.65908L26.0296 20.2419Z" fill="black"/>
<path d="M23.9421 19.9629L24.0143 1.44411L23.9421 19.9629Z" fill="black"/>
<path d="M23.9421 19.9629L23.6875 1.44274L24.3411 1.44548L23.9421 19.9629Z" fill="black"/>
<path d="M21.8135 20.1566L12.8657 4.40571Z" fill="black"/>
<path d="M21.8135 20.1566L12.5822 4.56891L13.1493 4.24216L21.8135 20.1566Z" fill="black"/>
<path d="M20.11 21.6374L4.68085 12.5842Z" fill="black"/>
<path d="M20.11 21.6374L4.51645 12.8685L4.8453 12.3L20.11 21.6374Z" fill="black"/>
<path d="M19.1752 23.8584L1.65311 23.7891L19.1752 23.8584Z" fill="black"/>
<path d="M19.1748 23.8584L1.65143 24.1179L1.65415 23.46L19.1748 23.8584Z" fill="black"/>
<path d="M19.9483 26.1696L4.59338 35.0174Z" fill="black"/>
<path d="M19.9483 26.1696L4.75543 35.303L4.431 34.7318L19.9483 26.1696Z" fill="black"/>
<path d="M21.5367 28.009L12.7142 43.2603Z" fill="black"/>
<path d="M21.5367 28.009L12.9964 43.4263L12.4317 43.0951L21.5367 28.009Z" fill="black"/>
<path d="M26.3316 33.0597L28.1889 40.1523Z" fill="black"/>
<path d="M26.3316 33.0597L28.5049 40.0683L27.873 40.2363L26.3316 33.0597Z" fill="black"/>
<path d="M29.9306 29.9715L35.904 36.0353Z" fill="black"/>
<path d="M29.9306 29.9715L36.1362 35.8035L35.6722 36.2667L29.9306 29.9715Z" fill="black"/>
<path d="M32.2917 26.1699L39.8785 28.2494Z" fill="black"/>
<path d="M32.2917 26.1699L39.9643 27.9322L39.7927 28.5669L32.2917 26.1699Z" fill="black"/>
<path d="M32.1787 21.6854L39.9629 19.6176Z" fill="black"/>
<path d="M32.1787 21.6854L39.8795 19.2998L40.0463 19.9358L32.1787 21.6854Z" fill="black"/>
<path d="M30.5556 17.2533L35.7079 12.1046Z" fill="black"/>
<path d="M30.5556 17.2533L35.4778 11.8711L35.9384 12.3381L30.5556 17.2533Z" fill="black"/>
<path d="M26.0463 16.0347L28.3197 7.62137Z" fill="black"/>
<path d="M26.0463 16.0347L28.0044 7.53497L28.6349 7.70811L26.0463 16.0347Z" fill="black"/>
<path d="M21.8298 15.8698L19.6633 7.59599Z" fill="black"/>
<path d="M21.8298 15.8698L19.3474 7.67999L19.9792 7.51234L21.8298 15.8698Z" fill="black"/>
<path d="M18.1927 18.0566L12.0034 11.7737Z" fill="black"/>
<path d="M18.1927 18.0566L11.7712 12.0055L12.2352 11.5419L18.1927 18.0566Z" fill="black"/>
<path d="M15.6923 21.6199L7.45328 19.3615Z" fill="black"/>
<path d="M15.6923 21.6199L7.36749 19.679L7.53907 19.044L15.6923 21.6199Z" fill="black"/>
<path d="M15.3644 31.6371L7.51932 33.721Z" fill="black"/>
</svg>
